<svg id="Layer_1" enable-background="new 0 0 512 512" height="512" viewBox="0 0 512 512" width="512" xmlns="http://www.w3.org/2000/svg"><path d="m387.009 59h-67.215c-2.565-32.96-30.186-59-63.794-59-33.607 0-61.228 26.04-63.794 59h-67.215c-38.047 0-69 30.953-69 69v73c0 17.232 9.741 32.225 24 39.783v200.217c0 39.149 31.851 71 71 71h210.017c39.149 0 71-31.851 71-71v-200.218c14.26-7.558 24-22.551 24-39.782v-73c.001-38.047-30.952-69-68.999-69zm-25 361.999v-14.999c0-24.813-20.187-45-45-45h-122.018c-24.813 0-45 20.187-45 45v14.999h-40v-174.999h57.017v62c0 8.284 6.716 15 15 15s15-6.716 15-15v-62h117.999v62c0 8.284 6.716 15 15 15s15-6.716 15-15v-62h57.001v174.999zm-30 0h-152.018v-14.999c0-8.271 6.729-15 15-15h122.018c8.271 0 15 6.729 15 15zm-76.009-390.999c17.052 0 31.208 12.614 33.637 29h-67.274c2.429-16.386 16.586-29 33.637-29zm-170.009 98c0-21.505 17.495-39 39-39h262.018c21.505 0 39 17.495 39 39v73c0 8.271-6.729 15-15 15h-66.001v-30c0-8.284-6.716-15-15-15s-15 6.716-15 15v30h-117.999v-30c0-8.284-6.716-15-15-15s-15 6.716-15 15v30h-66.018c-8.271 0-15-6.729-15-15zm275.018 354h-210.017c-19.159 0-35.286-13.211-39.761-31.001h289.54c-4.476 17.79-20.603 31.001-39.762 31.001z"/></svg>