<svg height="384pt" viewBox="-16 0 384 384" width="384pt" xmlns="http://www.w3.org/2000/svg"><path d="m112 224.359375c61.761719 0 112-50.328125 112-112.175781 0-61.855469-50.238281-112.183594-112-112.183594s-112 50.328125-112 112.183594c0 61.855468 50.238281 112.175781 112 112.175781zm0-192.359375c44.113281 0 80 35.96875 80 80.183594 0 44.207031-35.886719 80.175781-80 80.175781s-80-35.96875-80-80.175781c0-44.214844 35.886719-80.183594 80-80.183594zm0 0"/><path d="m192 263.136719c0 44.175781 35.886719 80.128906 80 80.128906s80-35.945313 80-80.128906c0-44.183594-35.886719-80.121094-80-80.121094s-80 35.9375-80 80.121094zm80-48.128907c26.472656 0 48 21.585938 48 48.121094s-21.527344 48.128906-48 48.128906-48-21.59375-48-48.128906 21.527344-48.121094 48-48.121094zm0 0"/><path d="m49.335938 329.929688c0 29.8125 24.222656 54.070312 54 54.070312 29.777343 0 54-24.257812 54-54.070312 0-29.816407-24.222657-54.074219-54-54.074219-29.777344 0-54 24.257812-54 54.074219zm76 0c0 12.167968-9.863282 22.070312-22 22.070312-12.136719 0-22-9.902344-22-22.070312 0-12.167969 9.863281-22.074219 22-22.074219 12.136718 0 22 9.90625 22 22.074219zm0 0"/><path d="m84.679688 154.207031c3.128906 3.128907 7.214843 4.695313 11.320312 4.695313 4.097656 0 8.175781-1.558594 11.304688-4.671875 6.246093-6.238281 6.261718-16.375.015624-22.628907l-24-24.042968c-6.230468-6.246094-16.359374-6.269532-22.625-.015625-6.246093 6.242187-6.261718 16.378906-.015624 22.632812zm0 0"/></svg>