<?xml version="1.0" encoding="iso-8859-1"?>
<!-- Generator: Adobe Illustrator 19.0.0, SVG Export Plug-In . SVG Version: 6.00 Build 0)  -->
<svg version="1.1" id="Capa_1" xmlns="http://www.w3.org/2000/svg" xmlns:xlink="http://www.w3.org/1999/xlink" x="0px" y="0px"
	 viewBox="0 0 511.999 511.999" style="enable-background:new 0 0 511.999 511.999;" xml:space="preserve">
<g>
	<g>
		<path fill="#565A6D" d="M396.37,322.061c-20.948-29.583-66.864-43.964-140.37-43.964c-28.135,0-52.549,2.14-72.563,6.358
			c-4.053,0.854-6.646,4.833-5.792,8.886c0.854,4.054,4.833,6.646,8.886,5.792c19-4.005,42.373-6.036,69.47-6.036
			c68.286,0,110.197,12.31,128.128,37.633c15.646,22.095,16.89,57.617,16.89,101.759c0,4.502,0,11.307-18.837,18.6
			c-17.101,6.622-42.211,10.122-72.614,10.122h-0.46c-35.403-0.043-70.818-0.043-106.207,0h-0.468
			c-30.402,0-55.512-3.5-72.614-10.124c-18.838-7.293-18.838-14.097-18.838-18.599c0-44.143,1.244-79.665,16.89-101.759
			c6.986-9.866,17.906-17.878,32.455-23.814c3.835-1.565,5.676-5.942,4.111-9.777c-1.565-3.836-5.943-5.675-9.778-4.111
			c-17.235,7.032-30.367,16.801-39.029,29.034c-18.202,25.703-19.649,63.581-19.649,110.428c0,10.048,3.23,22.833,28.421,32.586
			c18.812,7.285,45.794,11.136,78.03,11.136h0.477c35.393-0.043,70.78-0.043,106.188,0h0.469c32.237,0,59.219-3.851,78.03-11.134
			c25.192-9.753,28.423-22.539,28.423-32.588C416.019,385.642,414.572,347.764,396.37,322.061z"/>
	</g>
</g>
<g>
	<g>
		<path fill="#565A6D" d="M180.685,359.2c-4.142,0-7.5,3.358-7.5,7.5v13.631c0,4.142,3.358,7.5,7.5,7.5c4.142,0,7.5-3.358,7.5-7.5V366.7
			C188.185,362.558,184.827,359.2,180.685,359.2z"/>
	</g>
</g>
<g>
	<g>
		<path fill="#565A6D" d="M331.315,359.2c-4.142,0-7.5,3.358-7.5,7.5v13.631c0,4.142,3.358,7.5,7.5,7.5c4.142,0,7.5-3.358,7.5-7.5V366.7
			C338.815,362.558,335.457,359.2,331.315,359.2z"/>
	</g>
</g>
<g>
	<g>
		<path fill="#565A6D" d="M279.525,373.735c-3.119-2.726-7.856-2.408-10.583,0.711c-3.144,3.597-7.861,5.66-12.942,5.66
			c-5.081,0-9.798-2.063-12.942-5.661c-2.727-3.118-7.464-3.437-10.583-0.71c-3.119,2.727-3.437,7.464-0.711,10.583
			c5.993,6.857,14.827,10.789,24.236,10.789c9.409,0,18.243-3.932,24.236-10.789C282.962,381.199,282.644,376.462,279.525,373.735z"
			/>
	</g>
</g>
<g>
	<g>
		<path fill="#565A6D" d="M288.708,153.691h-65.416c-13.165,0-23.875,10.71-23.875,23.875v21.781c0,13.165,10.71,23.875,23.875,23.875h65.416
			c13.165,0,23.875-10.71,23.875-23.875v-21.781C312.583,164.401,301.873,153.691,288.708,153.691z M297.583,199.347
			c0,4.894-3.981,8.875-8.875,8.875h-65.416c-4.894,0-8.875-3.981-8.875-8.875v-21.781c0-4.894,3.981-8.875,8.875-8.875h65.416
			c4.893,0,8.875,3.982,8.875,8.875V199.347z"/>
	</g>
</g>
<g>
	<g>
		<path fill="#565A6D" d="M504.98,412.112l-3.998-69.242c-1.081-18.725-7.392-36.704-18.251-51.996c-10-14.081-23.429-25.262-39.017-32.559
			c-4.445-36.522-10.799-65.554-19.26-88.896c-1.412-3.895-5.713-5.907-9.607-4.495c-3.895,1.411-5.907,5.712-4.496,9.606
			c8.401,23.177,14.653,52.395,18.966,89.548c0.006,0.074,0.002,0.147,0.011,0.222c1.777,15.334,3.229,32.097,4.367,50.427
			c-6.131-11.843-14.43-22.601-24.358-31.504c-27.881-25.002-66.644-34.469-102.956-38.385c-16.729-1.804-33.56-2.532-50.381-2.532
			c-27.849,0-55.861,1.744-83.092,7.873c-23.774,5.351-47.661,14.246-66.629,29.949c-11.5,9.521-21.099,21.319-27.967,34.584
			c5.245-84.311,17.326-137.616,37.857-170.963c13.293-21.591,30.479-35.546,54.083-43.917
			c27.219-9.653,57.147-10.698,85.748-10.698c24.598,0,49.334,0.884,73.314,6.952c0.222,0.056,0.446,0.09,0.67,0.126
			c29.79,7.725,52.259,23.097,68.623,52.252c2.027,3.612,6.599,4.897,10.211,2.87s4.897-6.599,2.87-10.211
			c-17.769-31.66-42.038-48.957-73.03-58v-0.467C338.658,37.08,301.577,0,256,0c-45.577,0-82.658,37.08-82.658,82.658v0.401
			c-29.22,8.501-52.425,24.369-69.946,52.828c-15.336,24.909-26.118,59.685-32.961,106.317c-0.76,5.183-1.476,10.558-2.15,16.113
			c-15.588,7.297-29.016,18.478-39.016,32.559c-10.859,15.292-17.171,33.271-18.251,51.996l-3.999,69.241
			c-1.149,19.901,5.754,38.844,19.437,53.339c13.683,14.496,32.196,22.479,52.13,22.479h12.255
			c6.027,4.005,12.906,7.526,20.636,10.519c23.219,8.991,53.82,13.549,90.952,13.549h0.524c35.365-0.042,70.729-0.042,106.094,0
			c0,0,0.524,0,0.529,0c37.129,0,67.729-4.558,90.946-13.548c7.731-2.994,14.611-6.515,20.639-10.521h12.252
			c19.934,0,38.448-7.983,52.13-22.479C499.226,450.955,506.129,432.012,504.98,412.112z M256,74.135
			c-10.784,0-21.088,0.242-30.924,0.831C228.526,61.099,241.079,50.79,256,50.79c14.926,0,27.482,10.316,30.928,24.191
			C277.083,74.383,266.777,74.135,256,74.135z M256,15c36.223,0,65.889,28.611,67.582,64.422c-6.59-1.313-13.597-2.363-21.15-3.172
			C299.298,53.427,279.67,35.79,256,35.79c-23.666,0-43.291,17.632-46.43,40.45c-7.338,0.784-14.385,1.823-21.15,3.165
			C190.122,43.602,219.783,15,256,15z M37.362,455.157c-10.818-11.464-16.277-26.442-15.368-42.178l3.997-69.243
			c1.602-27.749,17.01-52.971,40.301-67.329c-3.586,36.427-6.101,148.613-6.101,156.083c0,15.547,4.557,29.018,13.583,40.245
			C59.86,471.584,47.073,465.444,37.362,455.157z M414.63,474.294c-0.117,0.083-0.215,0.183-0.326,0.271
			c-5.409,3.737-11.797,7.034-19.197,9.899c-43.616,16.89-93.33,12.503-139.107,12.503c-45.779,0-95.489,4.384-139.106-12.505
			c-7.407-2.868-13.799-6.168-19.21-9.909c-0.107-0.084-0.2-0.181-0.312-0.26c-15.845-11.164-22.211-27.727-22.172-46.798
			c0.075-28.01,0.884-53.041,5.647-74.917c3.543-16.271,9.808-32.244,20.025-45.517C136.134,261.25,202.95,257.307,256,257.307
			c52.108,0,120.387,4.651,155.129,49.754c25.81,33.508,25.557,79.909,25.672,120.16
			C436.857,446.718,430.981,462.811,414.63,474.294z M474.636,455.156c-9.71,10.287-22.497,16.427-36.412,17.577
			c9.026-11.227,13.583-24.697,13.583-40.245c0-31.399-0.639-62.765-1.846-94.14c-1.001-22.699-2.415-43.272-4.253-61.942
			c23.292,14.358,38.699,39.581,40.301,67.329l3.997,69.243C490.915,428.714,485.456,443.693,474.636,455.156z"/>
	</g>
</g>
<g>
</g>
<g>
</g>
<g>
</g>
<g>
</g>
<g>
</g>
<g>
</g>
<g>
</g>
<g>
</g>
<g>
</g>
<g>
</g>
<g>
</g>
<g>
</g>
<g>
</g>
<g>
</g>
<g>
</g>
</svg>
